<svg width="64" height="64" viewBox="0 0 64 64" fill="none" xmlns="http://www.w3.org/2000/svg">
<path d="M55.1689 8.01365C52.0146 4.5871 48.2743 1.92412 44.0526 0.0981201C43.6108 -0.0916477 43.0966 -0.00195819 42.7424 0.330828C42.3899 0.664307 42.2645 1.17682 42.4221 1.63877C46.3651 13.162 43.2245 25.981 34.4204 34.2968C25.617 42.613 12.7715 44.8909 1.69756 40.1031C1.25481 39.9127 0.740263 40.0023 0.38743 40.3358C0.0349393 40.6693 -0.0905352 41.1818 0.0670772 41.6438C1.5714 46.0375 3.93286 50.0019 7.08715 53.4277C13.5517 60.4488 22.3338 64 31.1393 64C39.1714 63.9993 47.2226 61.0437 53.5466 55.0712C59.9677 49.0056 63.6727 40.7708 63.9794 31.8828C64.2861 22.9949 61.1568 14.5184 55.1689 8.01365ZM61.5431 31.7966C61.2593 40.0255 57.8284 47.6495 51.8836 53.2646C39.6104 64.8553 20.3139 64.1742 8.87081 51.7427C6.57226 49.2466 4.72844 46.4423 3.36873 43.3794C10.3184 45.6981 17.7378 45.5572 24.4741 43.1827C25.1575 46.0763 27.7125 51.795 37.2274 51.795C37.9006 51.795 38.4466 51.2419 38.4466 50.5601C38.4466 49.8782 37.9006 49.3252 37.2274 49.3252C28.8383 49.3252 27.1132 44.2797 26.7579 42.2868C30.1355 40.8026 33.2977 38.7342 36.0837 36.1028C44.9032 27.772 48.4613 15.257 45.5319 3.55515C48.4534 5.1422 51.087 7.20091 53.3855 9.69767C58.9297 15.72 61.8265 23.5677 61.5431 31.7966Z" fill="black"/>
<path d="M47.0318 28.3036C46.5556 27.8212 45.7843 27.8212 45.308 28.3036C44.8317 28.786 44.8317 29.5672 45.308 30.0496L51.4036 36.2236C51.6416 36.4646 51.9537 36.5855 52.2655 36.5855C52.5773 36.5855 52.8895 36.465 53.1274 36.2236C53.6037 35.7412 53.6037 34.96 53.1274 34.4776L47.0318 28.3036Z" fill="black"/>
<path d="M47.9344 34.2463L45.4961 33.0114C44.8913 32.7056 44.161 32.9543 43.8601 33.5637C43.5589 34.1739 43.803 34.9153 44.4054 35.2207L46.8438 36.4556C47.0189 36.5443 47.2052 36.5858 47.3878 36.5858C47.8353 36.5858 48.2657 36.3362 48.4794 35.9033C48.781 35.2931 48.5369 34.5514 47.9344 34.2463Z" fill="black"/>
</svg>
