<svg width="64" height="64" viewBox="0 0 64 64" fill="none" xmlns="http://www.w3.org/2000/svg">
<path d="M17 31.9728C17 40.2684 23.7157 46.9934 32 46.9934C40.2843 46.9934 47 40.2684 47 31.9728C47 23.6771 40.2843 16.9521 32 16.9521C23.7157 16.9521 17 23.6771 17 31.9728ZM45 31.9728C45 39.1508 39.1682 44.9906 32 44.9906C24.8318 44.9906 19 39.1508 19 31.9728C19 24.7947 24.8318 18.9549 32 18.9549C39.1682 18.9549 45 24.7947 45 31.9728Z" fill="black"/>
<path d="M32.7422 11.7701C33.2949 11.7701 33.7422 11.3222 33.7422 10.7687V1.0014C33.7422 0.4479 33.2949 0 32.7422 0C32.1894 0 31.7422 0.4479 31.7422 1.0014V10.7687C31.7422 11.3222 32.1894 11.7701 32.7422 11.7701Z" fill="black"/>
<path d="M48.6445 4.65881C48.164 4.37911 47.5527 4.54431 47.2783 5.02351L42.3945 13.4814C42.1172 13.9606 42.2812 14.5728 42.7588 14.8495C42.917 14.9414 43.0889 14.9845 43.2588 14.9845C43.6045 14.9845 43.9404 14.8055 44.125 14.4848L49.0088 6.02681C49.2861 5.54771 49.1221 4.93551 48.6445 4.65881Z" fill="black"/>
<path d="M50.7617 23.0287C50.9307 23.0287 51.1025 22.9857 51.2607 22.8947L59.7187 18.0111C60.1963 17.7353 60.3613 17.1222 60.0849 16.643C59.8086 16.1658 59.2012 15.9995 58.7187 16.2763L50.2607 21.1599C49.7832 21.4357 49.6182 22.0489 49.8945 22.528C50.0791 22.8488 50.416 23.0287 50.7617 23.0287Z" fill="black"/>
<path d="M11.7676 32.7422C11.7676 32.1888 11.3203 31.7409 10.7676 31.7409H1C0.4473 31.7409 0 32.1888 0 32.7422C0 33.2957 0.4473 33.7436 1 33.7436H10.7676C11.3203 33.7436 11.7676 33.2957 11.7676 32.7422Z" fill="black"/>
<path d="M4.28221 18.0111L12.7402 22.8947C12.8984 22.9857 13.0693 23.0287 13.2392 23.0287C13.5849 23.0287 13.9219 22.8488 14.1064 22.528C14.3828 22.0489 14.2178 21.4357 13.7402 21.1599L5.28221 16.2763C4.80082 15.9995 4.19041 16.1638 3.91601 16.643C3.63961 17.1222 3.80471 17.7353 4.28221 18.0111Z" fill="black"/>
<path d="M20.7412 14.9845C20.9111 14.9845 21.083 14.9414 21.2402 14.8505C21.7187 14.5728 21.8828 13.9606 21.6064 13.4824L16.7236 5.02451C16.4463 4.54431 15.834 4.38011 15.3574 4.65781C14.8789 4.93551 14.7148 5.54771 14.9912 6.02591L19.874 14.4838C20.0596 14.8055 20.3955 14.9845 20.7412 14.9845Z" fill="black"/>
<path d="M32.7422 52.2319C32.1894 52.2319 31.7422 52.6798 31.7422 53.2333V62.9986C31.7422 63.5521 32.1894 64 32.7422 64C33.2949 64 33.7422 63.5521 33.7422 62.9986V53.2333C33.7422 52.6798 33.2949 52.2319 32.7422 52.2319Z" fill="black"/>
<path d="M22.5273 49.8937C22.0459 49.6141 21.4365 49.7793 21.1611 50.2585L16.2773 58.7164C16 59.1956 16.164 59.8077 16.6416 60.0845C16.7998 60.1764 16.9717 60.2194 17.1416 60.2194C17.4873 60.2194 17.8232 60.0405 18.0078 59.7197L22.8916 51.2618C23.1689 50.7826 23.0049 50.1705 22.5273 49.8937Z" fill="black"/>
<path d="M13.4824 42.3922L5.0244 47.2759C4.5469 47.5516 4.38182 48.1648 4.6582 48.644C4.84282 48.9647 5.1797 49.1447 5.5254 49.1447C5.6943 49.1447 5.8662 49.1016 6.0244 49.0107L14.4824 44.127C14.9599 43.8513 15.125 43.2381 14.8486 42.7589C14.5732 42.2807 13.9639 42.1145 13.4824 42.3922Z" fill="black"/>
<path d="M63 31.7409H53.2344C52.6816 31.7409 52.2344 32.1888 52.2344 32.7422C52.2344 33.2957 52.6816 33.7436 53.2344 33.7436H63C63.5527 33.7436 64 33.2957 64 32.7422C64 32.1888 63.5527 31.7409 63 31.7409Z" fill="black"/>
<path d="M58.9756 47.2759L50.5176 42.3922C50.0371 42.1155 49.4258 42.2807 49.1514 42.7589C48.875 43.2381 49.04 43.8513 49.5176 44.127L57.9756 49.0107C58.1338 49.1016 58.3047 49.1447 58.4746 49.1447C58.8203 49.1447 59.1572 48.9647 59.3418 48.644C59.6182 48.1648 59.4531 47.5516 58.9756 47.2759Z" fill="black"/>
<path d="M42.8379 50.2585C42.5625 49.7793 41.9512 49.6141 41.4717 49.8937C40.9941 50.1705 40.8301 50.7826 41.1074 51.2618L45.9912 59.7197C46.1758 60.0405 46.5117 60.2194 46.8574 60.2194C47.0273 60.2194 47.1992 60.1764 47.3574 60.0845C47.8349 59.8077 47.999 59.1956 47.7217 58.7164L42.8379 50.2585Z" fill="black"/>
</svg>
